<svg width="150" height="77" viewBox="0 0 117 60" fill="none" xmlns="http://www.w3.org/2000/svg">
<g clip-path="url(#clip0_5_6)">
<path d="M43.3778 31.0621H48.4178V31.3701H46.9338V40.5541H47.4378C48.2312 40.5541 48.8612 40.3114 49.3278 39.8261C49.8038 39.3407 50.2845 38.5941 50.7698 37.5861H51.0638L50.7978 40.8621H43.3778V40.5541H44.2038V31.3701H43.3778V31.0621ZM54.3217 33.2321C53.827 33.2321 53.4723 33.1061 53.2577 32.8541C53.0523 32.6021 52.9497 32.2894 52.9497 31.9161C52.9497 31.5427 53.0617 31.2347 53.2857 30.9921C53.519 30.7494 53.869 30.6281 54.3357 30.6281C54.8023 30.6281 55.157 30.7401 55.3997 30.9641C55.6423 31.1787 55.7637 31.4914 55.7637 31.9021C55.7637 32.3034 55.647 32.6254 55.4137 32.8681C55.1803 33.1107 54.8163 33.2321 54.3217 33.2321ZM52.2077 34.1981H55.6377V40.6101H56.4217V40.8621H52.2637V40.6101H53.0337V34.4501H52.2077V34.1981ZM57.435 34.1981H60.809V35.4861C60.9584 35.0567 61.187 34.7114 61.495 34.4501C61.803 34.1887 62.2697 34.0581 62.895 34.0581C64.3417 34.0581 65.065 34.8374 65.065 36.3961V40.6101H65.849V40.8621H61.887V40.6101H62.461V36.0601C62.461 35.5001 62.4237 35.1407 62.349 34.9821C62.2744 34.8141 62.139 34.7301 61.943 34.7301C61.6444 34.7301 61.3784 34.9261 61.145 35.3181C60.921 35.7101 60.809 36.1861 60.809 36.7461V40.6101H61.411V40.8621H57.435V40.6101H58.205V34.4501H57.435V34.1981ZM70.416 41.0021C69.212 41.0021 68.3066 40.6941 67.7 40.0781C67.1026 39.4527 66.804 38.5894 66.804 37.4881C66.804 36.3774 67.14 35.5281 67.812 34.9401C68.4933 34.3521 69.3566 34.0581 70.402 34.0581C72.5206 34.0581 73.538 35.1221 73.454 37.2501H69.506V37.7961C69.506 38.7107 69.6226 39.4014 69.856 39.8681C70.0893 40.3347 70.4953 40.5681 71.074 40.5681C72.1566 40.5681 72.866 39.9894 73.202 38.8321L73.454 38.8741C73.2766 39.5461 72.9546 40.0687 72.488 40.4421C72.0306 40.8154 71.34 41.0021 70.416 41.0021ZM69.52 36.9701H70.962V36.2841C70.962 35.5281 70.9153 35.0147 70.822 34.7441C70.738 34.4641 70.5606 34.3241 70.29 34.3241C70.0286 34.3241 69.8326 34.4734 69.702 34.7721C69.5806 35.0614 69.52 35.5654 69.52 36.2841V36.9701Z" fill="black"/>
<path d="M19.3022 24.544L17.5502 19.36H12.7982L10.9502 24.544H12.7502V25H9.07822V24.544H10.2062L16.3262 8.056H18.2942L24.3422 24.544H25.4462V25H17.5982V24.544H19.3022ZM15.2702 12.544L13.0142 18.832H17.3582L15.2702 12.544ZM24.267 14.008V13.576H31.443V14.008H29.931L32.811 21.976L35.403 14.008H33.795V13.576H37.035V14.008H35.979L32.427 25H29.691L25.251 14.008H24.267ZM44.1831 25.24C42.1191 25.24 40.5671 24.712 39.5271 23.656C38.5031 22.584 37.9911 21.104 37.9911 19.216C37.9911 17.312 38.5671 15.856 39.7191 14.848C40.8871 13.84 42.3671 13.336 44.1591 13.336C47.7911 13.336 49.5351 15.16 49.3911 18.808H42.6231V19.744C42.6231 21.312 42.8231 22.496 43.2231 23.296C43.6231 24.096 44.3191 24.496 45.3111 24.496C47.1671 24.496 48.3831 23.504 48.9591 21.52L49.3911 21.592C49.0871 22.744 48.5351 23.64 47.7351 24.28C46.9511 24.92 45.7671 25.24 44.1831 25.24ZM42.6471 18.328H45.1191V17.152C45.1191 15.856 45.0391 14.976 44.8791 14.512C44.7351 14.032 44.4311 13.792 43.9671 13.792C43.5191 13.792 43.1831 14.048 42.9591 14.56C42.7511 15.056 42.6471 15.92 42.6471 17.152V18.328ZM51.4941 13.576H57.2781V15.784C57.5341 15.048 57.9261 14.456 58.4541 14.008C58.9821 13.56 59.7821 13.336 60.8541 13.336C63.3341 13.336 64.5741 14.672 64.5741 17.344V24.568H65.9181V25H59.1261V24.568H60.1101V16.768C60.1101 15.808 60.0461 15.192 59.9181 14.92C59.7901 14.632 59.5581 14.488 59.2221 14.488C58.7101 14.488 58.2541 14.824 57.8541 15.496C57.4701 16.168 57.2781 16.984 57.2781 17.944V24.568H58.3101V25H51.4941V24.568H52.8141V14.008H51.4941V13.576ZM72.3072 20.032C72.3072 21.712 72.3952 22.832 72.5712 23.392C72.7472 23.936 73.0672 24.208 73.5312 24.208C74.0112 24.208 74.4192 24 74.7552 23.584C75.1072 23.168 75.2832 22.552 75.2832 21.736V16.504C75.2832 15.816 75.1472 15.232 74.8752 14.752C74.6032 14.272 74.2032 14.032 73.6752 14.032C73.1472 14.032 72.7872 14.384 72.5952 15.088C72.4032 15.792 72.3072 17.024 72.3072 18.784V20.032ZM75.5952 25L75.3312 23.32C74.7872 24.6 73.6832 25.24 72.0192 25.24C70.6432 25.24 69.5712 24.744 68.8032 23.752C68.0512 22.76 67.6752 21.28 67.6752 19.312C67.6752 15.328 69.2592 13.336 72.4272 13.336C73.8352 13.336 74.7632 13.728 75.2112 14.512V7.432H73.7472V7H79.7472V24.568H80.9232V25H75.5952ZM89.0565 25.24C86.9925 25.24 85.4405 24.712 84.4005 23.656C83.3765 22.584 82.8645 21.104 82.8645 19.216C82.8645 17.312 83.4405 15.856 84.5925 14.848C85.7605 13.84 87.2405 13.336 89.0325 13.336C92.6645 13.336 94.4085 15.16 94.2645 18.808H87.4965V19.744C87.4965 21.312 87.6965 22.496 88.0965 23.296C88.4965 24.096 89.1925 24.496 90.1845 24.496C92.0405 24.496 93.2565 23.504 93.8325 21.52L94.2645 21.592C93.9605 22.744 93.4085 23.64 92.6085 24.28C91.8245 24.92 90.6405 25.24 89.0565 25.24ZM87.5205 18.328H89.9925V17.152C89.9925 15.856 89.9125 14.976 89.7525 14.512C89.6085 14.032 89.3045 13.792 88.8405 13.792C88.3925 13.792 88.0565 14.048 87.8325 14.56C87.6245 15.056 87.5205 15.92 87.5205 17.152V18.328ZM104.336 14.248C103.744 14.248 103.224 14.632 102.776 15.4C102.328 16.168 102.104 17.08 102.104 18.136V24.568H103.808V25H96.3195V24.568H97.6395V14.008H96.3195V13.576H102.104V15.88C102.312 15.064 102.712 14.44 103.304 14.008C103.896 13.56 104.568 13.336 105.32 13.336C106.072 13.336 106.68 13.552 107.144 13.984C107.624 14.4 107.864 15 107.864 15.784C107.864 16.552 107.688 17.144 107.336 17.56C106.984 17.976 106.44 18.184 105.704 18.184C104.984 18.184 104.448 17.944 104.096 17.464C103.76 16.984 103.72 16.32 103.976 15.472H104.84C105.24 14.656 105.072 14.248 104.336 14.248Z" fill="black"/>
</g>
<defs>
<clipPath id="clip0_5_6">
<rect width="116.897" height="60" fill="white"/>
</clipPath>
</defs>
</svg>
