<svg width="158" height="29" viewBox="0 0 158 29" fill="none" xmlns="http://www.w3.org/2000/svg">
<path d="M12.9149 24.544L11.1629 19.36H6.41088L4.56288 24.544H6.36288V25H2.69088V24.544H3.81888L9.93888 8.056H11.9069L17.9549 24.544H19.0589V25H11.2109V24.544H12.9149ZM8.88287 12.544L6.62688 18.832H10.9709L8.88287 12.544ZM17.8797 14.008V13.576H25.0557V14.008H23.5437L26.4237 21.976L29.0157 14.008H27.4077V13.576H30.6477V14.008H29.5917L26.0397 25H23.3037L18.8637 14.008H17.8797ZM37.7957 25.24C35.7317 25.24 34.1797 24.712 33.1397 23.656C32.1157 22.584 31.6037 21.104 31.6037 19.216C31.6037 17.312 32.1797 15.856 33.3317 14.848C34.4997 13.84 35.9797 13.336 37.7717 13.336C41.4037 13.336 43.1477 15.16 43.0037 18.808H36.2357V19.744C36.2357 21.312 36.4357 22.496 36.8357 23.296C37.2357 24.096 37.9318 24.496 38.9238 24.496C40.7798 24.496 41.9958 23.504 42.5718 21.52L43.0037 21.592C42.6997 22.744 42.1478 23.64 41.3478 24.28C40.5638 24.92 39.3797 25.24 37.7957 25.24ZM36.2597 18.328H38.7317V17.152C38.7317 15.856 38.6517 14.976 38.4918 14.512C38.3477 14.032 38.0437 13.792 37.5797 13.792C37.1317 13.792 36.7958 14.048 36.5718 14.56C36.3637 15.056 36.2597 15.92 36.2597 17.152V18.328ZM45.1067 13.576H50.8907V15.784C51.1467 15.048 51.5387 14.456 52.0667 14.008C52.5947 13.56 53.3947 13.336 54.4667 13.336C56.9467 13.336 58.1867 14.672 58.1867 17.344V24.568H59.5307V25H52.7387V24.568H53.7227V16.768C53.7227 15.808 53.6587 15.192 53.5307 14.92C53.4027 14.632 53.1707 14.488 52.8347 14.488C52.3227 14.488 51.8667 14.824 51.4667 15.496C51.0827 16.168 50.8907 16.984 50.8907 17.944V24.568H51.9227V25H45.1067V24.568H46.4267V14.008H45.1067V13.576ZM65.9198 20.032C65.9198 21.712 66.0078 22.832 66.1838 23.392C66.3598 23.936 66.6798 24.208 67.1438 24.208C67.6238 24.208 68.0318 24 68.3678 23.584C68.7198 23.168 68.8958 22.552 68.8958 21.736V16.504C68.8958 15.816 68.7598 15.232 68.4878 14.752C68.2158 14.272 67.8158 14.032 67.2878 14.032C66.7598 14.032 66.3998 14.384 66.2078 15.088C66.0158 15.792 65.9198 17.024 65.9198 18.784V20.032ZM69.2078 25L68.9438 23.32C68.3998 24.6 67.2958 25.24 65.6318 25.24C64.2558 25.24 63.1838 24.744 62.4158 23.752C61.6638 22.76 61.2878 21.28 61.2878 19.312C61.2878 15.328 62.8718 13.336 66.0398 13.336C67.4478 13.336 68.3758 13.728 68.8238 14.512V7.432H67.3598V7H73.3598V24.568H74.5358V25H69.2078ZM82.6692 25.24C80.6052 25.24 79.0532 24.712 78.0132 23.656C76.9892 22.584 76.4772 21.104 76.4772 19.216C76.4772 17.312 77.0532 15.856 78.2052 14.848C79.3732 13.84 80.8532 13.336 82.6452 13.336C86.2772 13.336 88.0212 15.16 87.8772 18.808H81.1092V19.744C81.1092 21.312 81.3092 22.496 81.7092 23.296C82.1092 24.096 82.8052 24.496 83.7972 24.496C85.6532 24.496 86.8692 23.504 87.4452 21.52L87.8772 21.592C87.5732 22.744 87.0212 23.64 86.2212 24.28C85.4372 24.92 84.2532 25.24 82.6692 25.24ZM81.1332 18.328H83.6052V17.152C83.6052 15.856 83.5252 14.976 83.3652 14.512C83.2212 14.032 82.9172 13.792 82.4532 13.792C82.0052 13.792 81.6692 14.048 81.4452 14.56C81.2372 15.056 81.1332 15.92 81.1332 17.152V18.328ZM97.9482 14.248C97.3562 14.248 96.8362 14.632 96.3882 15.4C95.9402 16.168 95.7162 17.08 95.7162 18.136V24.568H97.4202V25H89.9322V24.568H91.2522V14.008H89.9322V13.576H95.7162V15.88C95.9242 15.064 96.3242 14.44 96.9162 14.008C97.5082 13.56 98.1802 13.336 98.9322 13.336C99.6842 13.336 100.292 13.552 100.756 13.984C101.236 14.4 101.476 15 101.476 15.784C101.476 16.552 101.3 17.144 100.948 17.56C100.596 17.976 100.052 18.184 99.3162 18.184C98.5962 18.184 98.0602 17.944 97.7082 17.464C97.3722 16.984 97.3322 16.32 97.5882 15.472H98.4522C98.8522 14.656 98.6842 14.248 97.9482 14.248ZM103.279 8.2H111.919V8.728H109.375V24.472H110.239C111.599 24.472 112.679 24.056 113.479 23.224C114.295 22.392 115.119 21.112 115.951 19.384H116.455L115.999 25H103.279V24.472H104.695V8.728H103.279V8.2ZM122.04 11.92C121.192 11.92 120.584 11.704 120.216 11.272C119.864 10.84 119.688 10.304 119.688 9.664C119.688 9.024 119.88 8.496 120.264 8.08C120.664 7.664 121.264 7.456 122.064 7.456C122.864 7.456 123.472 7.648 123.888 8.032C124.304 8.4 124.512 8.936 124.512 9.64C124.512 10.328 124.312 10.88 123.912 11.296C123.512 11.712 122.888 11.92 122.04 11.92ZM118.416 13.576H124.296V24.568H125.64V25H118.512V24.568H119.832V14.008H118.416V13.576ZM127.377 13.576H133.161V15.784C133.417 15.048 133.809 14.456 134.337 14.008C134.865 13.56 135.665 13.336 136.737 13.336C139.217 13.336 140.457 14.672 140.457 17.344V24.568H141.801V25H135.009V24.568H135.993V16.768C135.993 15.808 135.929 15.192 135.801 14.92C135.673 14.632 135.441 14.488 135.105 14.488C134.593 14.488 134.137 14.824 133.737 15.496C133.353 16.168 133.161 16.984 133.161 17.944V24.568H134.193V25H127.377V24.568H128.697V14.008H127.377V13.576ZM149.63 25.24C147.566 25.24 146.014 24.712 144.974 23.656C143.95 22.584 143.438 21.104 143.438 19.216C143.438 17.312 144.014 15.856 145.166 14.848C146.334 13.84 147.814 13.336 149.606 13.336C153.238 13.336 154.982 15.16 154.838 18.808H148.07V19.744C148.07 21.312 148.27 22.496 148.67 23.296C149.07 24.096 149.766 24.496 150.758 24.496C152.614 24.496 153.83 23.504 154.406 21.52L154.838 21.592C154.534 22.744 153.982 23.64 153.182 24.28C152.398 24.92 151.214 25.24 149.63 25.24ZM148.094 18.328H150.566V17.152C150.566 15.856 150.486 14.976 150.326 14.512C150.182 14.032 149.878 13.792 149.414 13.792C148.966 13.792 148.63 14.048 148.406 14.56C148.198 15.056 148.094 15.92 148.094 17.152V18.328Z" fill="white"/>
</svg>
